<svg xmlns="http://www.w3.org/2000/svg" viewBox="0 0 1152 192">
  <g>
    <rect width="1146" height="186" x="3" y="3" fill="#FF8E51" stroke="#000" stroke-width="6"/>
    <g transform="translate(32, 48)">
      <path fill="#000" d="M45,67.501125 C42.67125,67.501125 40.78125,65.611125 40.78125,63.282375 C40.78125,60.948 42.67125,59.063625 45,59.063625 C47.32875,59.063625 49.21875,60.948 49.21875,63.282375 C49.21875,65.611125 47.32875,67.501125 45,67.501125 L45,67.501125 Z M42.1875,33.751125 C42.1875,32.193 43.441875,30.938625 45,30.938625 C46.5525,30.938625 47.8125,32.193 47.8125,33.751125 L47.8125,50.626125 C47.8125,52.178625 46.5525,53.438625 45,53.438625 C43.441875,53.438625 42.1875,52.178625 42.1875,50.626125 L42.1875,33.751125 Z M83.2275,66.083625 L52.30125,12.646125 C50.776875,10.008 48.04875,8.438625 45,8.438625 C41.95125,8.438625 39.223125,10.008 37.69875,12.646125 L37.69875,12.646125 L6.7725,66.083625 C5.236875,68.727375 5.236875,71.883 6.766875,74.52675 C8.285625,77.1705 11.01375,78.7455 14.068125,78.7455 L75.931875,78.7455 C78.98625,78.7455 81.714375,77.1705 83.233125,74.52675 C84.763125,71.883 84.763125,68.727375 83.2275,66.083625 L83.2275,66.083625 Z" />
      <text x="0" y="0" font-size="39" font-family="-apple-system,BlinkMacSystemFont,Segoe UI,Helvetica,Arial,sans-serif,Apple Color Emoji,Segoe UI Emoji" fill="#000">
        <tspan x="128" dy="32.5">Due to a Rollup bug, tree-shaking of library components</tspan>
        <tspan x="128" dy="1.3em">currently does not work in Vue 3. See <a href="https://github.com/phosphor-icons/phosphor-vue/issues/6" text-decoration="underline">issue #6</a> for details.</tspan>
      </text>
    </g>
  </g>
</svg>

